<svg xmlns="http://www.w3.org/2000/svg" viewBox="0 0 356 136" width="356" height="136"><g transform="translate(6,20)"><path d="M72.75,24.73 A34,34 0 1 0 72.75,75.27" fill="none" stroke="#0B2A66" stroke-width="14" stroke-linecap="round"/><path d="M50,50 H84 V74" fill="none" stroke="#F5C518" stroke-width="14" stroke-linecap="round" stroke-linejoin="round"/></g><path d="M151.92 116.056Q144.56 116.056 138.994 113.526Q133.428 110.996 130.208 106.396L138.856 97.748Q141.248 100.6 144.238 102.072Q147.228 103.544 151.46 103.544Q156.704 103.544 159.69400000000002 100.96799999999999Q162.684 98.392 162.684 93.7V82.292L165.076 72.53999999999999L162.96 62.788000000000004V51.288000000000004H176.76V93.332Q176.76 100.232 173.54 105.292Q170.32 110.352 164.708 113.20400000000001Q159.096 116.056 151.92 116.056ZM151.276 94.62Q145.112 94.62 140.328 91.676Q135.544 88.732 132.784 83.672Q130.024 78.612 130.024 72.44800000000001Q130.024 66.19200000000001 132.784 61.178000000000004Q135.544 56.164 140.328 53.266000000000005Q145.112 50.368 151.276 50.368Q155.876 50.368 159.51 52.07Q163.144 53.772 165.398 56.854Q167.652 59.936 167.928 63.984V81.004Q167.652 84.96000000000001 165.398 88.042Q163.144 91.124 159.464 92.872Q155.784 94.62 151.276 94.62ZM153.944 82.108Q156.888 82.108 159.05 80.82Q161.212 79.532 162.362 77.37Q163.512 75.208 163.512 72.44800000000001Q163.512 69.688 162.362 67.48Q161.212 65.272 159.05 63.984Q156.888 62.696 153.944 62.696Q151.09199999999998 62.696 148.884 63.984Q146.676 65.272 145.48 67.48Q144.284 69.688 144.284 72.44800000000001Q144.284 75.024 145.48 77.27799999999999Q146.676 79.532 148.838 80.82Q151.0 82.108 153.944 82.108Z M204.372 96.92Q198.208 96.92 193.378 93.884Q188.548 90.848 185.74200000000002 85.604Q182.936 80.36 182.936 73.644Q182.936 66.928 185.74200000000002 61.684Q188.548 56.44 193.378 53.403999999999996Q198.208 50.368 204.372 50.368Q208.88 50.368 212.514 52.116Q216.14800000000002 53.864 218.448 56.946Q220.748 60.028 221.024 63.984V83.304Q220.748 87.26 218.494 90.34200000000001Q216.24 93.424 212.56 95.172Q208.88 96.92 204.372 96.92ZM207.22400000000002 84.224Q211.732 84.224 214.49200000000002 81.23400000000001Q217.252 78.244 217.252 73.644Q217.252 70.516 216.01 68.124Q214.768 65.732 212.514 64.398Q210.26000000000002 63.064 207.316 63.064Q204.372 63.064 202.118 64.398Q199.864 65.732 198.53 68.124Q197.196 70.516 197.196 73.644Q197.196 76.68 198.484 79.072Q199.77200000000002 81.464 202.072 82.844Q204.372 84.224 207.22400000000002 84.224ZM216.70000000000002 96.0V83.94800000000001L218.816 73.092L216.70000000000002 62.236V51.288000000000004H230.5V96.0Z M258.48 96.92Q252.132 96.92 247.21 93.884Q242.288 90.848 239.48200000000003 85.604Q236.67600000000002 80.36 236.67600000000002 73.644Q236.67600000000002 66.928 239.48200000000003 61.684Q242.288 56.44 247.21 53.403999999999996Q252.132 50.368 258.48 50.368Q263.08000000000004 50.368 266.80600000000004 52.116Q270.53200000000004 53.864 272.97 56.946Q275.408 60.028 275.684 63.984V82.844Q275.408 86.8 273.016 89.97399999999999Q270.624 93.148 266.85200000000003 95.03399999999999Q263.08000000000004 96.92 258.48 96.92ZM260.964 84.224Q264.0 84.224 266.20799999999997 82.89Q268.416 81.556 269.704 79.164Q270.992 76.772 270.992 73.644Q270.992 70.516 269.75 68.17Q268.50800000000004 65.824 266.254 64.444Q264.0 63.064 261.05600000000004 63.064Q258.112 63.064 255.858 64.444Q253.604 65.824 252.27 68.21600000000001Q250.936 70.608 250.936 73.644Q250.936 76.68 252.22400000000002 79.072Q253.51200000000003 81.464 255.812 82.844Q258.112 84.224 260.964 84.224ZM284.24 96.0H270.44V83.94800000000001L272.55600000000004 73.092L270.164 62.236V29.208H284.24Z M311.85200000000003 96.92Q305.68800000000005 96.92 300.85800000000006 93.884Q296.028 90.848 293.22200000000004 85.604Q290.41600000000005 80.36 290.41600000000005 73.644Q290.41600000000005 66.928 293.22200000000004 61.684Q296.028 56.44 300.85800000000006 53.403999999999996Q305.68800000000005 50.368 311.85200000000003 50.368Q316.36 50.368 319.994 52.116Q323.62800000000004 53.864 325.928 56.946Q328.228 60.028 328.504 63.984V83.304Q328.228 87.26 325.97400000000005 90.34200000000001Q323.72 93.424 320.04 95.172Q316.36 96.92 311.85200000000003 96.92ZM314.704 84.224Q319.21200000000005 84.224 321.97200000000004 81.23400000000001Q324.732 78.244 324.732 73.644Q324.732 70.516 323.49 68.124Q322.24800000000005 65.732 319.994 64.398Q317.74 63.064 314.79600000000005 63.064Q311.85200000000003 63.064 309.59800000000007 64.398Q307.34400000000005 65.732 306.01000000000005 68.124Q304.67600000000004 70.516 304.67600000000004 73.644Q304.67600000000004 76.68 305.96400000000006 79.072Q307.252 81.464 309.552 82.844Q311.85200000000003 84.224 314.704 84.224ZM324.18 96.0V83.94800000000001L326.29600000000005 73.092L324.18 62.236V51.288000000000004H337.98V96.0Z" fill="#0B2A66"/></svg>